<?xml version="1.0" encoding="UTF-8" standalone="no"?>
<!-- Created with Inkscape (http://www.inkscape.org/) -->

<svg
   xmlns:dc="http://purl.org/dc/elements/1.1/"
   xmlns:cc="http://creativecommons.org/ns#"
   xmlns:rdf="http://www.w3.org/1999/02/22-rdf-syntax-ns#"
   xmlns:svg="http://www.w3.org/2000/svg"
   xmlns="http://www.w3.org/2000/svg"
   xmlns:sodipodi="http://sodipodi.sourceforge.net/DTD/sodipodi-0.dtd"
   xmlns:inkscape="http://www.inkscape.org/namespaces/inkscape"
   width="76.00116mm"
   height="53.491154mm"
   viewBox="0 0 76.00116 53.491154"
   id="svg6292"
   sodipodi:docname="ahomentan.svg"
   version="1.1"
   inkscape:version="0.92.1 r15371">
  <metadata
     id="metadata4577">
    <rdf:RDF>
      <cc:Work
         rdf:about="">
        <dc:format>image/svg+xml</dc:format>
        <dc:type
           rdf:resource="http://purl.org/dc/dcmitype/StillImage" />
      </cc:Work>
    </rdf:RDF>
  </metadata>
  <defs
     id="defs4575" />
  <sodipodi:namedview
     pagecolor="#ffffff"
     bordercolor="#666666"
     borderopacity="1"
     objecttolerance="10"
     gridtolerance="10"
     guidetolerance="10"
     inkscape:pageopacity="0"
     inkscape:pageshadow="2"
     inkscape:window-width="1600"
     inkscape:window-height="881"
     id="namedview4573"
     showgrid="false"
     inkscape:zoom="1.167327"
     inkscape:cx="0.56235158"
     inkscape:cy="101.08564"
     inkscape:window-x="0"
     inkscape:window-y="19"
     inkscape:window-maximized="0"
     inkscape:current-layer="layer1" />
  <g
     inkscape:label="Capa 1"
     inkscape:groupmode="layer"
     id="layer1"
     transform="translate(-67.454803,-79.009331)">
    <path
       style="fill:#ff0066;fill-opacity:1;stroke:none;stroke-width:0.36387315;stroke-miterlimit:4;stroke-dasharray:none;stroke-opacity:1"
       d="m 137.55214,79.009331 -7.43544,11.67078 H 70.617379 c -1.752212,0 -3.162576,1.410411 -3.162576,3.162468 v 23.824631 c 0,1.75206 1.410364,3.1625 3.162576,3.1625 h 2.741609 v 11.67078 l 7.43532,-11.67078 h 59.499082 c 1.75209,0 3.16257,-1.41044 3.16257,-3.1625 V 93.842579 c 0,-1.752057 -1.41048,-3.162468 -3.16257,-3.162468 h -2.74125 z"
       id="karratua"
       inkscape:connector-curvature="0"
       sodipodi:nodetypes="ccsssscccsssscc" />
    <path
       style="font-weight:bold;font-size:12.57639217px;font-family:Lato;fill:#ffffff;stroke-width:3.77952766"
       d="M 52.171875 81.160156 L 52.171875 116.47656 L 58.041016 116.47656 L 58.041016 98.841797 C 58.833227 98.049583 59.673268 97.424334 60.560547 96.964844 C 61.447826 96.505354 62.398075 96.275391 63.412109 96.275391 C 64.806405 96.275391 65.844085 96.685854 66.525391 97.509766 C 67.206693 98.317829 67.548828 99.467671 67.548828 100.95703 L 67.548828 116.47656 L 73.417969 116.47656 L 73.417969 100.95703 C 73.417969 99.594411 73.235513 98.349548 72.871094 97.224609 C 72.522521 96.083822 71.999883 95.110797 71.302734 94.302734 C 70.621432 93.478848 69.766207 92.844032 68.736328 92.400391 C 67.70645 91.940901 66.52623 91.710938 65.195312 91.710938 C 63.658418 91.710938 62.318522 91.988411 61.177734 92.542969 C 60.036944 93.097501 58.99167 93.819749 58.041016 94.707031 L 58.041016 81.160156 L 52.171875 81.160156 z M 202.29883 84.628906 C 201.95015 84.628906 201.66509 84.716263 201.44336 84.890625 C 201.22145 85.064912 201.07131 85.310078 200.99219 85.626953 L 199.75586 92.28125 L 195.83398 92.923828 L 195.83398 95.253906 C 195.83398 95.665976 195.94624 95.973829 196.16797 96.179688 C 196.3898 96.385546 196.65773 96.488281 196.97461 96.488281 L 199.4707 96.488281 L 199.4707 110.10742 C 199.4707 112.21471 200.03326 113.87004 201.1582 115.07422 C 202.29899 116.26253 203.93155 116.85547 206.05469 116.85547 C 207.24302 116.85547 208.39091 116.67497 209.5 116.31055 C 210.60911 115.94612 211.59168 115.40633 212.44727 114.69336 L 210.68945 111.8418 C 210.56271 111.66741 210.4429 111.54006 210.33203 111.46094 C 210.22119 111.36595 210.07866 111.31836 209.9043 111.31836 C 209.76171 111.31836 209.61918 111.36595 209.47656 111.46094 C 209.33407 111.54031 209.16875 111.62766 208.97852 111.72266 C 208.80423 111.8179 208.58944 111.91282 208.33594 112.00781 C 208.09828 112.08693 207.79802 112.12695 207.43359 112.12695 C 206.78397 112.12695 206.26892 111.91217 205.88867 111.48438 C 205.52425 111.05658 205.3418 110.46367 205.3418 109.70312 L 205.3418 96.488281 L 211.85352 96.488281 L 211.85352 92.306641 L 205.3418 92.306641 L 205.3418 84.628906 L 202.29883 84.628906 z M 37.587891 91.640625 C 33.642666 91.640625 30.267328 92.923482 27.462891 95.490234 L 28.507812 97.367188 C 28.682099 97.652466 28.912068 97.907174 29.197266 98.128906 C 29.482461 98.334765 29.83219 98.4375 30.244141 98.4375 C 30.719469 98.4375 31.14708 98.327201 31.527344 98.105469 C 31.923451 97.883636 32.358656 97.636542 32.833984 97.367188 C 33.30931 97.081909 33.856682 96.829154 34.474609 96.607422 C 35.108381 96.38569 35.900905 96.275391 36.851562 96.275391 C 38.166637 96.275391 39.171992 96.670676 39.869141 97.462891 C 40.566287 98.239281 40.914062 99.444222 40.914062 101.07617 L 40.914062 102.50195 C 39.060282 102.54955 37.412532 102.69208 35.970703 102.92969 C 34.528876 103.1515 33.261225 103.44417 32.167969 103.80859 C 31.090559 104.17302 30.18023 104.60063 29.435547 105.0918 C 28.690867 105.58298 28.080797 106.1056 27.605469 106.66016 C 27.145994 107.21469 26.813406 107.80199 26.607422 108.41992 C 26.401438 109.022 26.298828 109.63207 26.298828 110.25 C 26.298828 111.34327 26.471739 112.30111 26.820312 113.125 C 27.168886 113.94891 27.661151 114.6388 28.294922 115.19336 C 28.928693 115.74789 29.681299 116.16792 30.552734 116.45312 C 31.424167 116.72248 32.374418 116.85547 33.404297 116.85547 C 34.275732 116.85547 35.068257 116.77763 35.78125 116.61914 C 36.510087 116.47655 37.190447 116.26177 37.824219 115.97656 C 38.45799 115.69136 39.068059 115.34358 39.654297 114.93164 C 40.240534 114.50385 40.84301 114.01159 41.460938 113.45703 L 41.984375 115.2168 C 42.158662 115.72373 42.396224 116.06392 42.697266 116.23828 C 42.998308 116.39677 43.425921 116.47656 43.980469 116.47656 L 46.642578 116.47656 L 46.642578 101.07617 C 46.642578 99.697728 46.437341 98.430074 46.025391 97.273438 C 45.629284 96.116801 45.041993 95.126646 44.265625 94.302734 C 43.489255 93.462999 42.539006 92.813005 41.414062 92.353516 C 40.289119 91.878202 39.013874 91.640625 37.587891 91.640625 z M 225.11914 91.640625 C 221.17392 91.640625 217.79858 92.923482 214.99414 95.490234 L 216.04102 97.367188 C 216.2153 97.652466 216.44529 97.907174 216.73047 98.128906 C 217.01567 98.334765 217.36342 98.4375 217.77539 98.4375 C 218.2507 98.4375 218.67832 98.327201 219.05859 98.105469 C 219.45469 97.883636 219.8899 97.636542 220.36523 97.367188 C 220.84055 97.081909 221.38793 96.829154 222.00586 96.607422 C 222.63964 96.38569 223.43216 96.275391 224.38281 96.275391 C 225.69789 96.275391 226.70324 96.670676 227.40039 97.462891 C 228.09756 98.239281 228.44727 99.444222 228.44727 101.07617 L 228.44727 102.50195 C 226.59348 102.54955 224.94575 102.69208 223.50391 102.92969 C 222.06207 103.1515 220.79441 103.44417 219.70117 103.80859 C 218.62375 104.17302 217.71146 104.60063 216.9668 105.0918 C 216.2221 105.58298 215.61203 106.1056 215.13672 106.66016 C 214.6771 107.21469 214.34453 107.80199 214.13867 108.41992 C 213.93281 109.022 213.83008 109.63207 213.83008 110.25 C 213.83008 111.34327 214.00494 112.30111 214.35352 113.125 C 214.70211 113.94891 215.19242 114.6388 215.82617 115.19336 C 216.45995 115.74789 217.21255 116.16792 218.08398 116.45312 C 218.95542 116.72248 219.90565 116.85547 220.93555 116.85547 C 221.80698 116.85547 222.59953 116.77763 223.3125 116.61914 C 224.04134 116.47655 224.72365 116.26177 225.35742 115.97656 C 225.9912 115.69136 226.60127 115.34358 227.1875 114.93164 C 227.77373 114.50385 228.37621 114.01159 228.99414 113.45703 L 229.51562 115.2168 C 229.68991 115.72373 229.92746 116.06392 230.22852 116.23828 C 230.52957 116.39677 230.95719 116.47656 231.51172 116.47656 L 234.17383 116.47656 L 234.17383 101.07617 C 234.17383 99.697728 233.96858 98.430074 233.55664 97.273438 C 233.16052 96.116801 232.57324 95.126646 231.79688 94.302734 C 231.02051 93.462999 230.07025 92.813005 228.94531 92.353516 C 227.82037 91.878202 226.54513 91.640625 225.11914 91.640625 z M 89.791016 91.710938 C 87.968926 91.710938 86.313582 92.005567 84.824219 92.591797 C 83.334858 93.178052 82.059613 94.008545 80.998047 95.085938 C 79.952325 96.163355 79.135068 97.478519 78.548828 99.03125 C 77.978434 100.58401 77.693359 102.31918 77.693359 104.23633 C 77.693359 106.16933 77.978434 107.91211 78.548828 109.46484 C 79.135068 111.0176 79.952325 112.34035 80.998047 113.43359 C 82.059613 114.52686 83.334858 115.3669 84.824219 115.95312 C 86.313582 116.53935 87.968926 116.83203 89.791016 116.83203 C 91.597264 116.83203 93.237421 116.53935 94.710938 115.95312 C 96.200298 115.3669 97.46795 114.52686 98.513672 113.43359 C 99.575238 112.34035 100.39054 111.0176 100.96094 109.46484 C 101.53133 107.91211 101.81641 106.16933 101.81641 104.23633 C 101.81641 102.31918 101.53133 100.58401 100.96094 99.03125 C 100.39054 97.478519 99.575238 96.163355 98.513672 95.085938 C 97.46795 94.008545 96.200298 93.178052 94.710938 92.591797 C 93.237421 92.005567 91.597264 91.710938 89.791016 91.710938 z M 118.32031 91.710938 C 117.59148 91.710938 116.91871 91.798294 116.30078 91.972656 C 115.6987 92.131094 115.12855 92.353469 114.58984 92.638672 C 114.06698 92.923875 113.56713 93.264062 113.0918 93.660156 C 112.63231 94.056276 112.18951 94.491483 111.76172 94.966797 L 111.38086 93.162109 C 111.1432 92.449114 110.64529 92.091797 109.88477 92.091797 L 106.29492 92.091797 L 106.29492 116.47656 L 112.16602 116.47656 L 112.16602 98.626953 C 112.79979 97.898109 113.48015 97.327959 114.20898 96.916016 C 114.95366 96.488198 115.75378 96.273438 116.60938 96.273438 C 117.87692 96.273437 118.83671 96.645932 119.48633 97.390625 C 120.15179 98.135293 120.48438 99.325056 120.48438 100.95703 L 120.48438 116.47656 L 126.37891 116.47656 L 126.37891 100.95703 C 126.37891 100.19651 126.48921 99.521802 126.71094 98.935547 C 126.93275 98.349317 127.23301 97.866599 127.61328 97.486328 C 128.00938 97.090108 128.46171 96.789843 128.96875 96.583984 C 129.49161 96.378126 130.05417 96.275391 130.65625 96.275391 C 131.97132 96.275391 132.96909 96.670676 133.65039 97.462891 C 134.33169 98.239281 134.67188 99.404301 134.67188 100.95703 L 134.67188 116.47656 L 140.54297 116.47656 L 140.54297 100.95703 C 140.54297 99.483519 140.35293 98.175944 139.97266 97.035156 C 139.60823 95.894369 139.06846 94.92698 138.35547 94.134766 C 137.6425 93.342551 136.76449 92.742047 135.71875 92.330078 C 134.67303 91.918135 133.47565 91.710938 132.12891 91.710938 C 131.35254 91.710938 130.57717 91.798294 129.80078 91.972656 C 129.04026 92.146943 128.31802 92.416828 127.63672 92.78125 C 126.95542 93.145672 126.33017 93.620801 125.75977 94.207031 C 125.18938 94.777438 124.71426 95.467353 124.33398 96.275391 C 123.8428 94.896947 123.09779 93.794615 122.09961 92.970703 C 121.11726 92.130968 119.85721 91.710938 118.32031 91.710938 z M 156.50781 91.710938 C 154.68573 91.710938 153.04753 92.028333 151.58984 92.662109 C 150.14803 93.295886 148.91834 94.160665 147.9043 95.253906 C 146.90612 96.331324 146.13832 97.606566 145.59961 99.080078 C 145.0609 100.53777 144.79102 102.09807 144.79102 103.76172 C 144.79102 105.90068 145.10082 107.78599 145.71875 109.41797 C 146.33668 111.03407 147.1843 112.39674 148.26172 113.50586 C 149.33911 114.5991 150.60676 115.43155 152.06445 116.00195 C 153.52212 116.55649 155.09762 116.83203 156.79297 116.83203 C 157.64855 116.83203 158.52851 116.76932 159.43164 116.64258 C 160.35059 116.51581 161.24573 116.30298 162.11719 116.00195 C 163.00444 115.68505 163.85209 115.27264 164.66016 114.76562 C 165.46822 114.24277 166.19803 113.60036 166.84766 112.83984 L 165.16016 110.70117 C 164.9225 110.33675 164.55757 110.1543 164.06641 110.1543 C 163.70198 110.1543 163.3219 110.2646 162.92578 110.48633 C 162.54554 110.70814 162.09317 110.95526 161.57031 111.22461 C 161.06328 111.49404 160.46082 111.73921 159.76367 111.96094 C 159.08237 112.18267 158.26706 112.29297 157.31641 112.29297 C 156.36575 112.29297 155.49534 112.15044 154.70312 111.86523 C 153.92676 111.56418 153.25205 111.12139 152.68164 110.53516 C 152.11126 109.93308 151.65326 109.18047 151.30469 108.27734 C 150.95604 107.35839 150.73366 106.27319 150.63867 105.02148 L 165.73047 105.02148 C 166.26908 105.02148 166.63203 104.87136 166.82227 104.57031 C 167.0125 104.25344 167.10938 103.65095 167.10938 102.76367 C 167.10938 101.00496 166.83949 99.444627 166.30078 98.082031 C 165.77792 96.703562 165.04811 95.546131 164.11328 94.611328 C 163.17848 93.660676 162.0629 92.940406 160.76367 92.449219 C 159.46445 91.958057 158.04472 91.710938 156.50781 91.710938 z M 184.49219 91.710938 C 183.6683 91.710938 182.90616 91.798294 182.20898 91.972656 C 181.51184 92.131094 180.85426 92.361057 180.23633 92.662109 C 179.63425 92.947313 179.05649 93.30463 178.50195 93.732422 C 177.96324 94.144365 177.44822 94.594775 176.95703 95.085938 L 176.55273 93.162109 C 176.31508 92.449114 175.81716 92.091797 175.05664 92.091797 L 171.4668 92.091797 L 171.4668 116.47656 L 177.33789 116.47656 L 177.33789 98.841797 C 178.1301 98.049583 178.97014 97.42238 179.85742 96.962891 C 180.7447 96.503401 181.69494 96.275391 182.70898 96.275391 C 184.10328 96.275391 185.14097 96.685854 185.82227 97.509766 C 186.50356 98.317829 186.84375 99.467671 186.84375 100.95703 L 186.84375 116.47656 L 192.71484 116.47656 L 192.71484 100.95703 C 192.71484 99.594411 192.53239 98.349548 192.16797 97.224609 C 191.8194 96.083822 191.29676 95.110797 190.59961 94.302734 C 189.91831 93.478848 189.0631 92.844032 188.0332 92.400391 C 187.00333 91.940901 185.82311 91.710938 184.49219 91.710938 z M 252.72656 91.710938 C 251.90268 91.710938 251.14246 91.798294 250.44531 91.972656 C 249.74814 92.131094 249.09056 92.361057 248.47266 92.662109 C 247.87055 92.947313 247.29281 93.30463 246.73828 93.732422 C 246.19957 94.144365 245.68455 94.594775 245.19336 95.085938 L 244.78906 93.162109 C 244.55141 92.449114 244.05153 92.091797 243.29102 92.091797 L 239.70312 92.091797 L 239.70312 116.47656 L 245.57422 116.47656 L 245.57422 98.841797 C 246.36641 98.049583 247.20451 97.42238 248.0918 96.962891 C 248.97908 96.503401 249.93127 96.275391 250.94531 96.275391 C 252.33961 96.275391 253.3773 96.685854 254.05859 97.509766 C 254.73989 98.317829 255.08008 99.467671 255.08008 100.95703 L 255.08008 116.47656 L 260.94922 116.47656 L 260.94922 100.95703 C 260.94922 99.594411 260.76872 98.349548 260.4043 97.224609 C 260.05572 96.083822 259.53113 95.110797 258.83398 94.302734 C 258.15269 93.478848 257.29747 92.844032 256.26758 92.400391 C 255.23771 91.940901 254.05749 91.710938 252.72656 91.710938 z M 156.62695 95.917969 C 157.49839 95.917969 158.26053 96.068089 158.91016 96.369141 C 159.57561 96.654319 160.12104 97.051558 160.54883 97.558594 C 160.97675 98.065605 161.29414 98.658546 161.5 99.339844 C 161.72173 100.00532 161.83203 100.71995 161.83203 101.48047 L 150.75781 101.48047 C 151.02717 99.705905 151.64483 98.333688 152.61133 97.367188 C 153.59368 96.400687 154.93163 95.917969 156.62695 95.917969 z M 89.791016 96.203125 C 91.819082 96.203125 93.316702 96.89304 94.283203 98.271484 C 95.265548 99.649954 95.755859 101.65306 95.755859 104.2832 C 95.755859 106.91335 95.265548 108.91084 94.283203 110.27344 C 93.316702 111.63606 91.819082 112.31641 89.791016 112.31641 C 87.731261 112.31641 86.203269 111.63606 85.205078 110.27344 C 84.222734 108.89499 83.730469 106.8975 83.730469 104.2832 C 83.730469 101.66888 84.222734 99.673366 85.205078 98.294922 C 86.203269 96.900629 87.731261 96.203125 89.791016 96.203125 z M 40.914062 106.06641 L 40.914062 110.17773 C 40.074317 111.06502 39.211498 111.73019 38.324219 112.17383 C 37.452783 112.60162 36.415103 112.81641 35.210938 112.81641 C 34.228593 112.81641 33.428474 112.59403 32.810547 112.15039 C 32.208466 111.70675 31.908203 110.96932 31.908203 109.93945 C 31.908203 109.41659 32.058333 108.93388 32.359375 108.49023 C 32.660414 108.04659 33.15832 107.6589 33.855469 107.32617 C 34.552618 106.99332 35.480088 106.72344 36.636719 106.51758 C 37.79335 106.29564 39.218725 106.14552 40.914062 106.06641 z M 228.44727 106.06641 L 228.44727 110.17773 C 227.6075 111.06502 226.74275 111.73019 225.85547 112.17383 C 224.98404 112.60162 223.94634 112.81641 222.74219 112.81641 C 221.75984 112.81641 220.95972 112.59403 220.3418 112.15039 C 219.73972 111.70675 219.43945 110.96932 219.43945 109.93945 C 219.43945 109.41659 219.5896 108.93388 219.89062 108.49023 C 220.19168 108.04659 220.69153 107.6589 221.38867 107.32617 C 222.08582 106.99332 223.01133 106.72344 224.16797 106.51758 C 225.3246 106.29564 226.75192 106.14552 228.44727 106.06641 z "
       transform="matrix(0.26458333,0,0,0.26458333,67.454803,79.009331)"
       id="path5122" />
  </g>
</svg>
